<?xml version="1.0" encoding="utf-8"?>
<!-- Generator: Adobe Illustrator 27.0.0, SVG Export Plug-In . SVG Version: 6.00 Build 0)  -->
<svg version="1.1" id="Capa_1" xmlns="http://www.w3.org/2000/svg" xmlns:xlink="http://www.w3.org/1999/xlink" x="0px" y="0px"
	 viewBox="0 0 841.9 595.3" style="enable-background:new 0 0 841.9 595.3;" xml:space="preserve">
<style type="text/css">
	.st0{opacity:0.2;}
	.st1{clip-path:url(#SVGID_00000045583770318311081280000016785905169951518391_);}
	.st2{fill:#FFFFFF;}
	.st3{fill:none;stroke:#FFFFFF;stroke-miterlimit:10;}
	.st4{fill:#BF975F;}
	.st5{font-family:'MyriadPro-Regular';}
	.st6{font-size:12px;}
	.st7{fill:none;}
</style>
<rect x="-1" width="841.9" height="595.3"/>
<g class="st0">
	<defs>
		<rect id="SVGID_1_" x="14.4" y="68.4" class="st0" width="597.3" height="465.2"/>
	</defs>
	<clipPath id="SVGID_00000158030297825422929300000006666534902082408870_">
		<use xlink:href="#SVGID_1_"  style="overflow:visible;"/>
	</clipPath>
	
		<g id="eovxJ9_00000113338226439329770710000017436997343067124400_" style="clip-path:url(#SVGID_00000158030297825422929300000006666534902082408870_);">
		
			<image style="overflow:visible;" width="765" height="630" id="eovxJ9_00000078004474168735683470000013614422551222211245_" xlink:href="192F70920E98F0F5.jpg"  transform="matrix(0.8492 0 0 0.8492 -2.1545 11.9498)">
		</image>
	</g>
</g>
<g>
	<path class="st2" d="M234.8,149.1l0-1.8l0.7-15.1l-1.6-6.7v-11.4l-5.4-1.4v-0.4c0-1.8-1.5-3.2-3.3-3.2h-2.1c-1.8,0-3.3,1.4-3.3,3.2
		v0.5l-5.5,1.2l-0.4,11.5l-1.8,6.5l0.2,17h-1v-0.6L211,132l1.9-6.6l0.4-12.1l5.4-1.2c0.2-2.2,2-3.9,4.3-3.9h2.1
		c2.2,0,4.1,1.7,4.3,3.8l5.4,1.4v12.1l1.6,6.7l-0.8,15.2l0,1.7L234.8,149.1z"/>
	<path class="st2" d="M223.5,151.3c-2,0-12.3-0.1-12.3-2.2s10.2-2.2,12.3-2.2c4.9,0,10.5,0.5,11.8,1.5c0.4,0.2,0.4,0.6,0.4,0.7
		C235.8,151.2,225.6,151.3,223.5,151.3z M212.4,149.1c0.9,0.5,5,1.2,11.2,1.2c6.1,0,10.2-0.6,11.1-1.2c-1.2-0.6-5.5-1.2-11.1-1.2
		C217.4,147.9,213.3,148.6,212.4,149.1z"/>
	<path class="st2" d="M230.6,212.4l-0.2-3.4l0-15.4l4.4-10.4v-26.7l-5.8-1.9V153c0-1.7-1.5-3.1-3.3-3.1h-2.2c-1.8,0-3.3,1.4-3.3,3.1
		v1.5l-5.8,1.9v26.7l4.4,10.5v15.2l-0.2,3.5l-1-0.1l0.2-3.4l0-15.1l-4.4-10.5v-27.6l5.8-1.9V153c0-2.3,1.9-4.1,4.3-4.1h2.2
		c2.4,0,4.3,1.8,4.3,4.1v0.8l5.8,1.9l0,27.8l-4.4,10.4v15.1l0.2,3.4L230.6,212.4z"/>
	<path class="st2" d="M224.7,215.6c-4,0-6.9-1.4-6.9-3.2s3-3.2,6.9-3.2c4,0,6.9,1.4,6.9,3.2S228.6,215.6,224.7,215.6z M224.7,210.2
		c-3.4,0-5.9,1.2-5.9,2.2s2.5,2.2,5.9,2.2c3.4,0,5.9-1.2,5.9-2.2S228.1,210.2,224.7,210.2z"/>
	<path class="st2" d="M235.8,300.5h-20.6v-71.2c0-3.9,2.1-7.3,5.5-9.1l0-7.8l0.2-0.1c3.8-2.8,8,0,8,0l0.2,0.1v7.3
		c4,1.5,6.7,5.3,6.7,9.7V300.5z M216.1,299.5h18.6v-70.2c0-4-2.5-7.5-6.3-8.8l-0.3-0.1V213c-0.8-0.5-3.7-1.9-6.5,0l0,7.9l-0.3,0.1
		c-3.2,1.6-5.2,4.8-5.2,8.4V299.5z"/>
	<path class="st2" d="M232.9,309.4h-15.3v-5.8h15.3V309.4z M218.6,308.4h13.3v-3.8h-13.3V308.4z"/>
	<path class="st2" d="M255.5,323.1h-26.2c-6.4,0-11.6,5.2-11.6,11.6v11.6h37.8c0.4,0,0.8,0,1.2-0.1c5.8-0.6,10.4-5.6,10.4-11.6
		C267.1,328.3,261.9,323.1,255.5,323.1z M255.7,345.3h-37v-10.6c0-5.8,4.8-10.6,10.6-10.6h26.2c5.9,0,10.6,4.8,10.6,10.6
		C266.1,340.5,261.4,345.2,255.7,345.3z"/>
	<path class="st2" d="M212.9,322.9c-0.3-0.3-0.7-0.6-1-0.8c-1.1-0.8-2.3-1.2-3.6-1.2h-6.7l-2.2,7.9h-13.3v11.1h13.3l2.2,6.4h6.7
		c1.3,0,2.5-0.4,3.6-1.2c0.3-0.2,0.7-0.5,1-0.8c2.3-2.3,3.9-6.2,3.9-10.7C216.8,329.1,215.2,325.2,212.9,322.9z M211.9,343.9
		c-1.1,0.9-2.3,1.4-3.6,1.4h-6l-2.2-6.4h-13v-9.1h13l2.2-7.9h6c1.3,0,2.5,0.5,3.6,1.5c0.4,0.3,0.7,0.7,1,1c1.7,2.1,2.9,5.5,2.9,9.2
		s-1.1,7.1-2.9,9.2C212.6,343.2,212.2,343.6,211.9,343.9z"/>
	<polyline class="st2" points="219.6,304.1 219.6,300 220.6,300 220.6,304.3 	"/>
	<path class="st2" d="M219.3,308.7c0.1,2.1-0.4,3.6-1.5,4.7c-1.6,1.5-3.8,1.5-4.9,1.5v9.5c-0.3-0.4-0.6-0.8-1-1v-9.6l0.6,0.1
		c0,0,3,0.4,4.7-1.2c0.9-0.9,1.3-2.2,1.2-4v-0.1"/>
	<polyline class="st2" points="228.4,304.1 228.4,300 229.4,300 229.4,304.1 	"/>
	<path class="st2" d="M230.7,308.7c-0.1,1.8,0.3,3.1,1.2,4c1.7,1.6,4.6,1.2,4.7,1.2l0.6-0.1v10.4h-1v-9.2c-1.1,0.1-3.4,0-4.9-1.5
		c-1.1-1.1-1.7-2.6-1.5-4.7"/>
	<path class="st2" d="M236.1,345.3h1v47.6l-0.5,0c-0.1,0-3.1-0.2-4.2,3.2l4,1.3v35.3l-5.3,3.3v5.1h-9.6v-5l-7-3.2v-35l5-2.2
		c-2.2-3.6-6.7-2.9-6.9-2.9l-0.6,0.1l0-0.6v-48.5c0.4-0.3,0.7-0.7,1-1.1v49c1.5-0.1,5.7,0,7.7,3.9l0.2,0.5l-5.4,2.4v33.7l7,3.2v4.6
		h7.6v-4.6l5.3-3.3v-34l-4.2-1.4l0.1-0.5c1-3.7,3.7-4.3,4.9-4.4V345.3z"/>
	<polygon class="st2" points="254.8,280.3 238.3,280.3 238.3,269.3 235.3,269.3 235.3,268.3 239.3,268.3 239.3,279.3 253.7,279.3 
		252.9,269 253.7,258.8 239.3,258.8 239.3,267.6 235.3,267.6 235.3,266.6 238.3,266.6 238.3,257.8 254.8,257.8 253.9,269 	"/>
	<path class="st2" d="M235.8,201.6h-5.4v-2.7h5.4V201.6z M231.4,200.6h3.4v-0.7h-3.4V200.6z"/>
	<path class="st2" d="M218.7,201.6h-6.4v-2.7h6.4V201.6z M213.3,200.6h4.4v-0.7h-4.4V200.6z"/>
	<path class="st2" d="M210.7,280.9l-1.3-23.1l4-0.2l1.3,23.1L210.7,280.9z M210.5,258.8l1.2,21.1l2.1-0.1l-1.2-21.1L210.5,258.8z"/>
	<path class="st2" d="M205,281.7l-1.3-23.1l4-0.2l1.3,23.1L205,281.7z M204.7,259.5l1.2,21.1l2.1-0.1l-1.2-21.1L204.7,259.5z"/>
	<path class="st2" d="M199.7,282.2l-1.3-23.1l4-0.2l1.3,23.1L199.7,282.2z M199.4,260.1l1.2,21.1l2.1-0.1l-1.2-21.1L199.4,260.1z"/>
	<path class="st2" d="M296.4,212.1h-28.6v-2.4h-33v-19.6h33v-2.4h28.6V212.1z M268.8,211.1h26.6v-22.4h-26.6v2.4h-33v17.6h33V211.1z
		"/>
	<rect x="234.8" y="191.7" class="st2" width="61.1" height="0.5"/>
	<rect x="234.8" y="196.6" class="st2" width="61.1" height="0.5"/>
	<rect x="234.8" y="201.5" class="st2" width="61.1" height="0.5"/>
	<rect x="234.8" y="206.4" class="st2" width="61.1" height="0.5"/>
	<rect x="288.9" y="188.2" class="st2" width="0.5" height="23.4"/>
	<rect x="281.9" y="188.2" class="st2" width="0.5" height="23.4"/>
	<rect x="274.8" y="188.2" class="st2" width="0.5" height="23.4"/>
	<rect x="268.2" y="188.2" class="st2" width="0.5" height="23.4"/>
	<rect x="261.2" y="190.6" class="st2" width="0.5" height="18.6"/>
	<rect x="254.5" y="190.6" class="st2" width="0.5" height="18.6"/>
	<rect x="247.4" y="190.6" class="st2" width="0.5" height="18.6"/>
	<rect x="240.8" y="190.6" class="st2" width="0.5" height="18.6"/>
	<path class="st2" d="M179.8,212.4h-28.6V188h28.6v2.4h33V210h-33V212.4z M152.3,211.4h26.6V209h33v-17.6h-33V189h-26.6V211.4z"/>
	<rect x="151.8" y="192" class="st2" width="61.1" height="0.5"/>
	<rect x="151.8" y="197" class="st2" width="61.1" height="0.5"/>
	<rect x="151.8" y="201.8" class="st2" width="61.1" height="0.5"/>
	<rect x="151.8" y="206.8" class="st2" width="61.1" height="0.5"/>
	<rect x="158.2" y="188.5" class="st2" width="0.5" height="23.4"/>
	<rect x="165.3" y="188.5" class="st2" width="0.5" height="23.4"/>
	<rect x="172.3" y="188.5" class="st2" width="0.5" height="23.4"/>
	<rect x="178.9" y="188.5" class="st2" width="0.5" height="23.4"/>
	<rect x="186" y="190.9" class="st2" width="0.5" height="18.6"/>
	<rect x="192.6" y="190.9" class="st2" width="0.5" height="18.6"/>
	<rect x="199.7" y="190.9" class="st2" width="0.5" height="18.6"/>
	<rect x="206.4" y="190.9" class="st2" width="0.5" height="18.6"/>
	<polygon class="st2" points="267.7,408.5 261.8,407 235.8,407 235.8,406 262,406.1 267.9,407.6 	"/>
	<polygon class="st2" points="262,430 235.8,430 235.8,429 261.8,429 267.7,427.5 267.9,428.5 	"/>
	<path class="st2" d="M285.4,408.6c-0.3-0.4-0.5-0.7-0.8-1c0-0.1-0.1-0.1-0.1-0.1c-0.3-0.3-0.7-0.7-1-0.9v1.1h-0.3
		c0.3,0.3,0.7,0.6,1,1c2.1,2.4,3.4,5.8,3.4,9.5c0,3.7-1.3,7.1-3.4,9.5c-0.3,0.4-0.6,0.7-1,1h0.3v1.1c0.3-0.3,0.7-0.6,1-0.9
		c0,0,0.1-0.1,0.1-0.2c0.3-0.3,0.6-0.6,0.8-1c1.9-2.5,3.1-5.8,3.1-9.5S287.4,411.1,285.4,408.6z M276,403.7
		c-6.9,0-12.5,6.4-12.5,14.4s5.6,14.4,12.5,14.4c1.6,0,3.1-0.3,4.4-0.9c0.3-0.2,0.7-0.3,1-0.5v-1.2c-0.3,0.2-0.7,0.4-1,0.6
		c-1.4,0.7-2.9,1-4.4,1c-6.3,0-11.5-6-11.5-13.4s5.2-13.4,11.5-13.4c1.6,0,3.1,0.4,4.4,1c0.3,0.2,0.7,0.3,1,0.6v-1.2
		c-0.3-0.2-0.7-0.4-1-0.5C279.1,404,277.6,403.7,276,403.7z"/>
	<path class="st2" d="M297.3,428.5h-13v-1h12.4c6-10,1-17.7,0-19h-12.4v-1h12.9l0.1,0.2c0.1,0.1,7.2,9.1,0,20.5L297.3,428.5z"/>
	<path class="st2" d="M292,398.8v9.8h4v-9.8H292z M293,407.6v-7.8h2v7.8H293z"/>
	<path class="st2" d="M286.1,398.8v9.8h4v-9.8H286.1z M287.1,407.6v-7.8h2v7.8H287.1z"/>
	<path class="st2" d="M280.5,398.8v9.8h4v-9.8H280.5z M283.4,407.6h-2v-7.8h2V407.6z"/>
	<path class="st2" d="M292,427.5v9.8h4v-9.8H292z M295,436.3h-2v-7.8h2V436.3z"/>
	<path class="st2" d="M286.1,427.5v9.8h4v-9.8H286.1z M289,436.3h-2v-7.8h2V436.3z"/>
	<path class="st2" d="M280.5,427.5v9.8h4v-9.8H280.5z M283.4,436.3h-2v-7.8h2V436.3z"/>
	<polygon class="st2" points="214.9,409.1 205.6,409.1 198.7,407 184.2,407 184.2,406 199,406.1 205.8,408.1 214.9,408.1 	"/>
	<polygon class="st2" points="198.9,431.1 184.2,431.1 184.2,430.1 198.7,430.1 205.7,428 214.9,428 214.9,429 205.8,429 	"/>
	<path class="st2" d="M184.3,431.1c-1.9,0-2.1-9.6-2.1-12.5s0.1-12.5,2.1-12.5s2.1,9.6,2.1,12.5S186.2,431.1,184.3,431.1z
		 M184.3,407.2c-0.5,1.1-1.1,5.2-1.1,11.3s0.6,10.2,1.1,11.3c0.5-1.1,1.1-5.2,1.1-11.3S184.7,408.3,184.3,407.2z"/>
	<path class="st2" d="M264.2,353.1l-7.5-6.8l-1-0.9h-19.6V363h100.4v-10H264.2z M335.5,362h-98.4v-15.7h18.2l8.5,7.8h71.7V362z"/>
	<path class="st2" d="M361.6,364.6h-26.1v-16.7h26.1V364.6z M336.5,363.6h24.1v-14.7h-24.1V363.6z"/>
	<path class="st2" d="M416.7,364.6h-52.9v-16.7h52.9V364.6z M364.8,363.6h50.9v-14.7h-50.9V363.6z"/>
	<path class="st2" d="M132.6,361.5h-7.2v-4.1h7.2V361.5z M126.4,360.5h5.2v-2.1h-5.2V360.5z"/>
	<path class="st2" d="M437.5,212.1h-49.2v-5.9h49.2V212.1z M389.3,211.1h47.2v-3.9h-47.2V211.1z"/>
	<path class="st2" d="M437.5,345.4h-49.2v-5.9h49.2V345.4z M389.3,344.4h47.2v-3.9h-47.2V344.4z"/>
	<path class="st2" d="M431.2,340.5h-17V211.1h17V340.5z M415.2,339.5h15V212.1h-15V339.5z"/>
	<path class="st2" d="M411.2,340.5h-17V211.1h17V340.5z M395.2,339.5h15V212.1h-15V339.5z"/>
	<path class="st2" d="M385.7,212.1h-49.2v-5.9h49.2V212.1z M337.5,211.1h47.2v-3.9h-47.2V211.1z"/>
	<path class="st2" d="M385.7,345.4h-49.2v-5.9h49.2V345.4z M337.5,344.4h47.2v-3.9h-47.2V344.4z"/>
	<path class="st2" d="M379.3,340.5h-17V211.1h17V340.5z M363.4,339.5h15V212.1h-15V339.5z"/>
	<path class="st2" d="M359.4,340.5h-17V211.1h17V340.5z M343.4,339.5h15V212.1h-15V339.5z"/>
	<path class="st2" d="M437.5,373.1h-49.2v-5.9h49.2V373.1z M389.3,372.1h47.2v-3.9h-47.2V372.1z"/>
	<path class="st2" d="M436.7,506.2h-47.5v-5.8h47.5V506.2z M390.2,505.2h45.5v-3.8h-45.5V505.2z"/>
	<path class="st2" d="M431.2,501.5h-17V372.1h17V501.5z M415.2,500.5h15V373.1h-15V500.5z"/>
	<path class="st2" d="M411.2,501.5h-17V372.1h17V501.5z M395.2,500.5h15V373.1h-15V500.5z"/>
	<path class="st2" d="M385.7,373.1h-49.2v-5.9h49.2V373.1z M337.5,372.1h47.2v-3.9h-47.2V372.1z"/>
	<path class="st2" d="M384.1,506.2h-47.5v-5.8h47.5V506.2z M337.6,505.2h45.5v-3.8h-45.5V505.2z"/>
	<path class="st2" d="M379.3,501.5h-17V372.1h17V501.5z M363.4,500.5h15V373.1h-15V500.5z"/>
	<path class="st2" d="M359.4,501.5h-17V372.1h17V501.5z M343.4,500.5h15V373.1h-15V500.5z"/>
	<path class="st2" d="M413.8,348.9h-4.6v-4.5h4.6V348.9z M410.2,347.9h2.6v-2.5h-2.6V347.9z"/>
	<path class="st2" d="M413.8,368.1h-4.6v-4.5h4.6V368.1z M410.2,367.1h2.6v-2.5h-2.6V367.1z"/>
	<path class="st2" d="M381.2,348.9h-4.6v-4.5h4.6V348.9z M377.5,347.9h2.6v-2.5h-2.6V347.9z"/>
	<path class="st2" d="M381.2,368.1h-4.6v-4.5h4.6V368.1z M377.5,367.1h2.6v-2.5h-2.6V367.1z"/>
	<path class="st2" d="M126.4,366.4h-26.1v-16.7h26.1V366.4z M101.3,365.4h24.1v-14.7h-24.1V365.4z"/>
	<path class="st2" d="M98,366.4H45.1v-16.7H98V366.4z M46.1,365.4H97v-14.7H46.1V365.4z"/>
	<path class="st2" d="M101.3,359.9H97v-4.1h4.3V359.9z M98,358.9h2.3v-2.1H98V358.9z"/>
	<path class="st2" d="M72.8,508H25.3v-5.8h47.5V508z M26.3,507h45.5v-3.8H26.3V507z"/>
	<path class="st2" d="M73.5,374.9H24.3V369h49.2V374.9z M25.3,373.9h47.2V370H25.3V373.9z"/>
	<path class="st2" d="M47.7,503.3h-17V373.9h17V503.3z M31.7,502.3h15V374.9h-15V502.3z"/>
	<path class="st2" d="M67.6,503.3h-17V373.9h17V503.3z M51.7,502.3h15V374.9h-15V502.3z"/>
	<path class="st2" d="M122.3,508H74.7v-5.8h47.5V508z M75.7,507h45.5v-3.8H75.7V507z"/>
	<path class="st2" d="M125.4,374.9H76.2V369h49.2V374.9z M77.2,373.9h47.2V370H77.2V373.9z"/>
	<path class="st2" d="M99.5,503.3h-17V373.9h17V503.3z M83.5,502.3h15V374.9h-15V502.3z"/>
	<path class="st2" d="M119.5,503.3h-17V373.9h17V503.3z M103.5,502.3h15V374.9h-15V502.3z"/>
	<path class="st2" d="M73.5,347.2H24.3v-5.9h49.2V347.2z M25.3,346.2h47.2v-3.9H25.3V346.2z"/>
	<path class="st2" d="M73.5,213.9H24.3V208h49.2V213.9z M25.3,212.9h47.2V209H25.3V212.9z"/>
	<path class="st2" d="M47.7,342.3h-17V212.9h17V342.3z M31.7,341.3h15V213.9h-15V341.3z"/>
	<path class="st2" d="M67.6,342.3h-17V212.9h17V342.3z M51.7,341.3h15V213.9h-15V341.3z"/>
	<path class="st2" d="M125.4,347.2H76.2v-5.9h49.2V347.2z M77.2,346.2h47.2v-3.9H77.2V346.2z"/>
	<path class="st2" d="M125.4,213.9H76.2V208h49.2V213.9z M77.2,212.9h47.2V209H77.2V212.9z"/>
	<path class="st2" d="M99.5,342.3h-17V212.9h17V342.3z M83.5,341.3h15V213.9h-15V341.3z"/>
	<path class="st2" d="M119.5,342.3h-17V212.9h17V342.3z M103.5,341.3h15V213.9h-15V341.3z"/>
	<path class="st2" d="M52.7,370H48v-4.5h4.6V370z M49,369h2.6v-2.5H49V369z"/>
	<path class="st2" d="M52.7,350.8H48v-4.5h4.6V350.8z M49,349.8h2.6v-2.5H49V349.8z"/>
	<path class="st2" d="M85.4,370h-4.6v-4.5h4.6V370z M81.7,369h2.6v-2.5h-2.6V369z"/>
	<path class="st2" d="M85.4,350.8h-4.6v-4.5h4.6V350.8z M81.7,349.8h2.6v-2.5h-2.6V349.8z"/>
	<path class="st2" d="M335.5,345.7l-57.1-0.3l-3.2-5.9h56.6L335.5,345.7z M279,344.4l54.8,0.3l-2.6-4.2h-54.3L279,344.4z"/>
	<path class="st2" d="M332.1,338.7H316l-1.2-14.9h16L332.1,338.7z M317,337.7H331l-1.1-12.9h-14L317,337.7z"/>
	<path class="st2" d="M329.3,322.9h-14.5L316,308H331L329.3,322.9z M315.9,321.9h12.5l1.4-12.9H317L315.9,321.9z"/>
	<path class="st2" d="M331,307.3H316l-1.7-14.7h14.9L331,307.3z M316.9,306.3h12.9l-1.5-12.7h-12.9L316.9,306.3z"/>
	<path class="st2" d="M329.4,292h-14.9l1.5-14.9H331L329.4,292z M315.6,291h12.9l1.3-12.9h-12.9L315.6,291z"/>
	<path class="st2" d="M331,276.3H316l-1.7-14.5h14.9L331,276.3z M316.9,275.3h12.9l-1.5-12.5h-12.9L316.9,275.3z"/>
	<path class="st2" d="M329.4,260.6h-14.9l1.5-14.9H331L329.4,260.6z M315.6,259.6h12.9l1.3-12.9h-12.9L315.6,259.6z"/>
	<path class="st2" d="M331,245H316l-1.7-14.6h14.9L331,245z M316.9,244h12.9l-1.5-12.6h-12.9L316.9,244z"/>
	<path class="st2" d="M329.3,229.7h-14.9l1.7-15.3H331L329.3,229.7z M315.5,228.7h12.9l1.5-13.3h-12.9L315.5,228.7z"/>
	<path class="st2" d="M313.1,337.9H297l-1.2-14.9h16L313.1,337.9z M297.9,336.9H312l-1.1-12.9h-14L297.9,336.9z"/>
	<path class="st2" d="M310.3,322.1h-14.5l1.2-14.9h14.9L310.3,322.1z M296.9,321.1h12.5l1.4-12.9h-12.9L296.9,321.1z"/>
	<path class="st2" d="M311.9,306.6H297l-1.7-14.7h14.9L311.9,306.6z M297.9,305.6h12.9l-1.5-12.7h-12.9L297.9,305.6z"/>
	<path class="st2" d="M310.4,291.3h-14.9l1.5-14.9h14.9L310.4,291.3z M296.6,290.3h12.9l1.3-12.9h-12.9L296.6,290.3z"/>
	<path class="st2" d="M311.9,275.5H297l-1.7-14.5h14.9L311.9,275.5z M297.9,274.5h12.9l-1.5-12.5h-12.9L297.9,274.5z"/>
	<path class="st2" d="M310.4,259.8h-14.9l1.5-14.9h14.9L310.4,259.8z M296.6,258.8h12.9l1.3-12.9h-12.9L296.6,258.8z"/>
	<path class="st2" d="M311.9,244.3H297l-1.7-14.6h14.9L311.9,244.3z M297.9,243.3h12.9l-1.5-12.6h-12.9L297.9,243.3z"/>
	<path class="st2" d="M310.2,228.9h-14.9l1.7-14.3h14.9L310.2,228.9z M296.4,227.9h12.9l1.5-12.3h-12.9L296.4,227.9z"/>
	<path class="st2" d="M293.5,337.9h-16.1l-1.2-14.9h16L293.5,337.9z M278.3,336.9h14.1l-1.1-12.9h-14L278.3,336.9z"/>
	<path class="st2" d="M290.6,322.1h-14.5l1.2-14.9h14.9L290.6,322.1z M277.2,321.1h12.5l1.4-12.9h-12.9L277.2,321.1z"/>
	<path class="st2" d="M292.3,306.6h-14.9l-1.7-14.7h14.9L292.3,306.6z M278.3,305.6h12.9l-1.5-12.7h-12.9L278.3,305.6z"/>
	<path class="st2" d="M290.8,291.3h-14.9l1.5-14.9h14.9L290.8,291.3z M276.9,290.3h12.9l1.3-12.9h-12.9L276.9,290.3z"/>
	<path class="st2" d="M292.3,275.5h-14.9l-1.7-14.5h14.9L292.3,275.5z M278.3,274.5h12.9l-1.5-12.5h-12.9L278.3,274.5z"/>
	<path class="st2" d="M290.8,259.8h-14.9l1.5-14.9h14.9L290.8,259.8z M276.9,258.8h12.9l1.3-12.9h-12.9L276.9,258.8z"/>
	<path class="st2" d="M292.3,244.3h-14.9l-1.7-14.6h14.9L292.3,244.3z M278.3,243.3h12.9l-1.5-12.6h-12.9L278.3,243.3z"/>
	<path class="st2" d="M290.6,228.9h-14.9l1.7-14.3h14.9L290.6,228.9z M276.8,227.9h12.9l1.5-12.3h-12.9L276.8,227.9z"/>
	<path class="st2" d="M187.3,349.5l-57.1-0.3l-3.2-5.9h56.6L187.3,349.5z M130.8,348.2l54.8,0.3l-2.6-4.2h-54.3L130.8,348.2z"/>
	<path class="st2" d="M183.9,342.5h-16.1l-1.2-14.9h16L183.9,342.5z M168.7,341.5h14.1l-1.1-12.9h-14L168.7,341.5z"/>
	<path class="st2" d="M181.1,326.7h-14.5l1.2-14.9h14.9L181.1,326.7z M167.7,325.7h12.5l1.4-12.9h-12.9L167.7,325.7z"/>
	<path class="st2" d="M182.7,311.1h-14.9l-1.7-14.7H181L182.7,311.1z M168.7,310.1h12.9l-1.5-12.7h-12.9L168.7,310.1z"/>
	<path class="st2" d="M181.2,295.8h-14.9l1.5-14.9h14.9L181.2,295.8z M167.4,294.8h12.9l1.3-12.9h-12.9L167.4,294.8z"/>
	<path class="st2" d="M182.7,280.1h-14.9l-1.7-14.5H181L182.7,280.1z M168.7,279.1h12.9l-1.5-12.5h-12.9L168.7,279.1z"/>
	<path class="st2" d="M181.2,264.3h-14.9l1.5-14.9h14.9L181.2,264.3z M167.4,263.3h12.9l1.3-12.9h-12.9L167.4,263.3z"/>
	<path class="st2" d="M182.7,248.8h-14.9l-1.7-14.6H181L182.7,248.8z M168.7,247.8h12.9l-1.5-12.6h-12.9L168.7,247.8z"/>
	<path class="st2" d="M181,233.4h-14.9l1.7-15.3h14.9L181,233.4z M167.2,232.4h12.9l1.5-13.3h-12.9L167.2,232.4z"/>
	<path class="st2" d="M164.9,341.7h-16.1l-1.2-14.9h16L164.9,341.7z M149.7,340.7h14.1l-1.1-12.9h-14L149.7,340.7z"/>
	<path class="st2" d="M162,325.9h-14.5l1.2-14.9h14.9L162,325.9z M148.6,324.9h12.5l1.4-12.9h-12.9L148.6,324.9z"/>
	<path class="st2" d="M163.7,310.4h-14.9l-1.7-14.7H162L163.7,310.4z M149.7,309.4h12.9l-1.5-12.7h-12.9L149.7,309.4z"/>
	<path class="st2" d="M162.2,295h-14.9l1.5-14.9h14.9L162.2,295z M148.4,294h12.9l1.3-12.9h-12.9L148.4,294z"/>
	<path class="st2" d="M163.7,279.3h-14.9l-1.7-14.5H162L163.7,279.3z M149.7,278.3h12.9l-1.5-12.5h-12.9L149.7,278.3z"/>
	<path class="st2" d="M162.2,263.6h-14.9l1.5-14.9h14.9L162.2,263.6z M148.4,262.6h12.9l1.3-12.9h-12.9L148.4,262.6z"/>
	<path class="st2" d="M163.7,248.1h-14.9l-1.7-14.6H162L163.7,248.1z M149.7,247.1h12.9l-1.5-12.6h-12.9L149.7,247.1z"/>
	<path class="st2" d="M162,232.7h-14.9l1.7-14.3h14.9L162,232.7z M148.2,231.7h12.9l1.5-12.3h-12.9L148.2,231.7z"/>
	<path class="st2" d="M145.2,341.7h-16.1l-1.2-14.9h16L145.2,341.7z M130.1,340.7h14.1l-1.1-12.9h-14L130.1,340.7z"/>
	<path class="st2" d="M142.4,325.9h-14.5l1.2-14.9h14.9L142.4,325.9z M129,324.9h12.5L143,312h-12.9L129,324.9z"/>
	<path class="st2" d="M144.1,310.4h-14.9l-1.7-14.7h14.9L144.1,310.4z M130.1,309.4H143l-1.5-12.7h-12.9L130.1,309.4z"/>
	<path class="st2" d="M142.5,295h-14.9l1.5-14.9h14.9L142.5,295z M128.7,294h12.9l1.3-12.9h-12.9L128.7,294z"/>
	<path class="st2" d="M144.1,279.3h-14.9l-1.7-14.5h14.9L144.1,279.3z M130.1,278.3H143l-1.5-12.5h-12.9L130.1,278.3z"/>
	<path class="st2" d="M142.5,263.6h-14.9l1.5-14.9h14.9L142.5,263.6z M128.7,262.6h12.9l1.3-12.9h-12.9L128.7,262.6z"/>
	<path class="st2" d="M144.1,248.1h-14.9l-1.7-14.6h14.9L144.1,248.1z M130.1,247.1H143l-1.5-12.6h-12.9L130.1,247.1z"/>
	<path class="st2" d="M142.4,232.7h-14.9l1.7-14.3h14.9L142.4,232.7z M128.6,231.7h12.9l1.5-12.3h-12.9L128.6,231.7z"/>
	<polygon class="st2" points="212.1,365.1 132,365.1 132,354.6 198.6,354.6 212.1,345.4 212.7,346.2 198.9,355.6 133,355.6 
		133,364.1 212.1,364.1 	"/>
	<path class="st2" d="M234.4,122.7l-0.1-4.7l39-1.2l0.1,4.7L234.4,122.7z M235.3,118.9l0.1,2.7l37-1.2l-0.1-2.7L235.3,118.9z"/>
	<path class="st2" d="M257.4,130.2l-23.2-3.1l0.6-4.7l23.2,3.1L257.4,130.2z M235.4,126.2l21.2,2.9l0.4-2.7l-21.2-2.9L235.4,126.2z"
		/>
	<path class="st2" d="M214.1,121.7l-38.9-2.4l0.3-4.7l38.9,2.4L214.1,121.7z M176.2,118.4l36.9,2.3l0.2-2.7l-36.9-2.3L176.2,118.4z"
		/>
	<path class="st2" d="M190.9,128.5l-0.5-4.7l23.2-2.4l0.5,4.7L190.9,128.5z M191.5,124.7l0.3,2.7l21.3-2.2l-0.3-2.7L191.5,124.7z"/>
</g>
<g>
	<polygon class="st3" points="525.3,125.5 524.8,125.1 527.3,122.1 527.3,107.5 517.2,107.5 517.2,122.1 519.6,125.1 519.1,125.5 
		516.6,122.3 516.6,106.9 527.9,106.9 527.9,122.3 	"/>
	<path class="st3" d="M528.3,134.2h-12.7V125h12.7V134.2z M516.3,133.6h11.4v-7.9h-11.4V133.6z"/>
	<path class="st3" d="M526.2,149.5h-7.9v-15.9h7.9V149.5z M519,148.8h6.6v-14.6H519V148.8z"/>
	<path class="st3" d="M522.3,145c-2.1,0-3.9-1.7-3.9-3.9s1.7-3.9,3.9-3.9c2.1,0,3.9,1.7,3.9,3.9S524.4,145,522.3,145z M522.3,137.9
		c-1.8,0-3.2,1.5-3.2,3.2s1.5,3.2,3.2,3.2c1.8,0,3.2-1.5,3.2-3.2S524.1,137.9,522.3,137.9z"/>
	<polygon class="st3" points="551,148.8 534.3,148.8 530.5,144.5 525.9,144.5 525.9,143.9 530.8,143.9 534.6,148.2 550.8,148.2 
		554.5,146 583.5,146 583.5,136.4 554.5,136.4 550.8,134.2 534.6,134.2 530.8,138.5 525.9,138.5 525.9,137.9 530.5,137.9 
		534.3,133.6 551,133.6 554.7,135.7 584.1,135.7 584.1,146.7 554.7,146.7 	"/>
	<polygon class="st3" points="510.2,148.8 493.5,148.8 489.8,146.7 460.4,146.7 460.4,135.7 489.8,135.7 493.5,133.6 510.2,133.6 
		514,137.9 518.6,137.9 518.6,138.5 513.7,138.5 509.9,134.2 493.7,134.2 490,136.4 461,136.4 461,146 490,146 493.7,148.2 
		509.9,148.2 513.7,143.9 518.6,143.9 518.6,144.5 514,144.5 	"/>
	<path class="st3" d="M514.5,117.5H497v-7.9h17.5V117.5z M497.7,116.8h16.2v-6.6h-16.2V116.8z"/>
	<path class="st3" d="M517.2,115.1h-3.4v-2.4h3.4V115.1z M514.5,114.5h2.1v-1.1h-2.1V114.5z"/>
	<path class="st3" d="M547.6,117.5h-17.5v-7.9h17.5V117.5z M530.7,116.8h16.2v-6.6h-16.2V116.8z"/>
	<path class="st3" d="M530.6,115.1h-3.4v-2.4h3.4V115.1z M527.9,114.5h2.1v-1.1h-2.1V114.5z"/>
	<path class="st3" d="M515.1,226.3h-17.5v-7.9h17.5V226.3z M498.3,225.7h16.2v-6.6h-16.2V225.7z"/>
	<path class="st3" d="M517.9,224h-3.4v-2.4h3.4V224z M515.1,223.4h2.1v-1.1h-2.1V223.4z"/>
	<path class="st3" d="M547.4,226.3h-17.5v-7.9h17.5V226.3z M530.5,225.7h16.2v-6.6h-16.2V225.7z"/>
	<path class="st3" d="M530.5,224h-3.9v-2.4h3.9V224z M527.3,223.4h2.6v-1.1h-2.6V223.4z"/>
	<polygon class="st3" points="527.3,227.4 517.2,227.4 517.2,216.5 514.8,214.1 514.8,200.3 518.3,196.8 518.3,195.7 514,193 
		514,171.7 515.6,168.7 515.6,152.6 518.4,149 518.9,149.3 516.3,152.8 516.3,168.9 514.6,171.8 514.6,192.6 519,195.3 519,197.1 
		515.5,200.5 515.5,213.9 517.8,216.2 517.8,226.7 526.7,226.7 526.7,216.2 529,213.9 529,200.5 525.5,197.1 525.5,195.3 
		529.9,192.6 529.9,171.8 528.2,168.9 528.2,152.8 525.6,149.3 526.1,149 528.9,152.6 528.9,168.7 530.5,171.7 530.5,193 
		526.2,195.7 526.2,196.8 529.7,200.3 529.7,214.1 527.3,216.5 	"/>
	<path class="st3" d="M514.6,168h-32.1v-12.5h32.1V168z M483.2,167.4H514v-11.2h-30.8V167.4z"/>
	<path class="st3" d="M562.2,168h-32.1v-12.5h32.1V168z M530.7,167.4h30.8v-11.2h-30.8V167.4z"/>
	<path class="st3" d="M516.3,163H514v-2.5h2.3V163z M514.6,162.3h1v-1.2h-1V162.3z"/>
	<path class="st3" d="M530.5,163h-2.3v-2.5h2.3V163z M528.9,162.3h1v-1.2h-1V162.3z"/>
</g>
<text transform="matrix(1 0 0 1 25.2751 53.1121)" class="st4 st5 st6">80 m ancho x 100 m largo</text>
<text transform="matrix(1 0 0 1 461.7618 53.1121)" class="st4 st5 st6">4 m de ancho 20 m de largo</text>
<rect x="630.1" y="73.4" class="st7" width="137.8" height="134.4"/>
<text transform="matrix(1 0 0 1 630.1133 81.9611)"><tspan x="0" y="0" class="st2 st5 st6">La estación espacial china </tspan><tspan x="0" y="14.4" class="st2 st5 st6">es una pequeña porción de </tspan><tspan x="0" y="28.8" class="st2 st5 st6">la EAI. Ssobre una cancha </tspan><tspan x="0" y="43.2" class="st2 st5 st6">de fútbol es como ver un </tspan><tspan x="0" y="57.6" class="st2 st5 st6">autobús escolar.</tspan></text>
</svg>
